HIERARCHY
ROOT joint_Root
{
	OFFSET 0.0 0.0 0.0
	CHANNELS 6 Xposition Yposition Zposition Zrotation Xrotation Yrotation 
	JOINT Hips
	{
		OFFSET -0.726466 93.3139 -2.00062
		CHANNELS 6 Xposition Yposition Zposition Zrotation Xrotation Yrotation 
		JOINT Spine
		{
			OFFSET 15.7357 0.0 0.0
			CHANNELS 6 Xposition Yposition Zposition Zrotation Xrotation Yrotation 
			JOINT Chest
			{
				OFFSET 8.98455 -0.406207 0.0
				CHANNELS 6 Xposition Yposition Zposition Zrotation Xrotation Yrotation 
				JOINT Neck
				{
					OFFSET 16.3773 0.0 0.0
					CHANNELS 6 Xposition Yposition Zposition Zrotation Xrotation Yrotation 
					JOINT Head
					{
						OFFSET 6.45672 0.0 0.0
						CHANNELS 6 Xposition Yposition Zposition Zrotation Xrotation Yrotation 
						End Site
						{
							OFFSET 0.0 0.0 0.0
						}
					}
				}
				JOINT Shoulder_L
				{
					OFFSET 12.9942 -0.242716 4.98039
					CHANNELS 6 Xposition Yposition Zposition Zrotation Xrotation Yrotation 
					JOINT UpperArm_L
					{
						OFFSET 5.34809 0.0 0.0
						CHANNELS 6 Xposition Yposition Zposition Zrotation Xrotation Yrotation 
						JOINT LowerArm_L
						{
							OFFSET 24.3286 1.87007e-05 0.0
							CHANNELS 6 Xposition Yposition Zposition Zrotation Xrotation Yrotation 
							JOINT Hand_L
							{
								OFFSET 22.2916 0.0 0.0
								CHANNELS 6 Xposition Yposition Zposition Zrotation Xrotation Yrotation 
								End Site
								{
									OFFSET 0.0 0.0 0.0
								}
							}
						}
					}
				}
				JOINT Shoulder_R
				{
					OFFSET 12.9945 -0.242716 -4.98039
					CHANNELS 6 Xposition Yposition Zposition Zrotation Xrotation Yrotation 
					JOINT UpperArm_R
					{
						OFFSET -5.34813 0.0 0.0
						CHANNELS 6 Xposition Yposition Zposition Zrotation Xrotation Yrotation 
						JOINT LowerArm_R
						{
							OFFSET -24.3289 0.000322201 0.0
							CHANNELS 6 Xposition Yposition Zposition Zrotation Xrotation Yrotation 
							JOINT Hand_R
							{
								OFFSET -22.2915 -0.000108084 0.0
								CHANNELS 6 Xposition Yposition Zposition Zrotation Xrotation Yrotation 
								End Site
								{
									OFFSET 0.0 0.0 0.0
								}
							}
						}
					}
				}
			}
		}
		JOINT UpperLeg_L
		{
			OFFSET -2.19248 -6.46944 0.0
			CHANNELS 6 Xposition Yposition Zposition Zrotation Xrotation Yrotation 
			JOINT LowerLeg_L
			{
				OFFSET 39.0811 0.0 -1.23785e-05
				CHANNELS 6 Xposition Yposition Zposition Zrotation Xrotation Yrotation 
				JOINT Foot_L
				{
					OFFSET 40.9854 0.0 -1.26872e-05
					CHANNELS 6 Xposition Yposition Zposition Zrotation Xrotation Yrotation 
					JOINT Toes_L
					{
						OFFSET 11.7543 0.0 0.0
						CHANNELS 6 Xposition Yposition Zposition Zrotation Xrotation Yrotation 
						End Site
						{
							OFFSET 0.0 0.0 0.0
						}
					}
				}
			}
		}
		JOINT UpperLeg_R
		{
			OFFSET -2.19251 6.46944 0.0
			CHANNELS 6 Xposition Yposition Zposition Zrotation Xrotation Yrotation 
			JOINT LowerLeg_R
			{
				OFFSET -39.0811 -0.00228153 -0.0401928
				CHANNELS 6 Xposition Yposition Zposition Zrotation Xrotation Yrotation 
				JOINT Foot_R
				{
					OFFSET -40.9854 0.0 0.0
					CHANNELS 6 Xposition Yposition Zposition Zrotation Xrotation Yrotation 
					JOINT Toes_R
					{
						OFFSET -11.7543 0.0 0.0
						CHANNELS 6 Xposition Yposition Zposition Zrotation Xrotation Yrotation 
						End Site
						{
							OFFSET 0.0 0.0 0.0
						}
					}
				}
			}
		}
	}
}
MOTION
Frames:	7
Frame Time:	0.0333333
0.000000 0.000000 0.000000 0.000000 0.000000 -0.000000 -1.079760 92.428000 -1.474030 88.310900 -0.239395 3.044850 15.735700 0.000005 -0.000001 78.634900 86.131500 -77.236800 8.984550 -0.406207 -0.000000 -0.159272 -1.620950 2.792400 16.377300 -0.000001 -0.000001 2.503680 -1.429580 -1.280950 6.456720 -0.000001 -0.000000 3.014710 -1.771850 -0.070616 12.994200 -0.242716 4.980390 -87.174800 -7.290210 -68.749200 5.348090 -0.000007 -0.000001 -84.054700 -40.064300 -92.988300 24.328600 0.000019 0.000005 8.782430 0.133401 -89.136700 22.291600 -0.000001 0.000005 21.853200 5.614830 -12.272200 12.994500 -0.242716 -4.980390 88.338300 5.405580 -72.883600 -5.348130 -0.000001 -0.000004 -64.906500 38.246300 -15.125600 -24.328900 0.000322 -0.000009 2.272550 7.929870 -16.054800 -22.291500 -0.000108 -0.000004 8.515840 5.424490 -3.751060 -2.192480 -6.469440 -0.000000 -175.838000 -5.148320 -3.430810 39.081100 -0.000007 -0.000012 -0.095875 0.238589 21.892300 40.985400 -0.000006 -0.000013 -0.388571 3.446300 -65.684800 11.754300 -0.000000 0.000003 -0.000021 -0.000269 -16.588100 -2.192510 6.469440 -0.000001 -179.803000 14.065900 179.667000 -39.081100 -0.002282 -0.040193 0.004815 -0.004434 18.582600 -40.985400 0.000008 0.000006 4.968530 6.310460 -65.960500 -11.754300 -0.000006 -0.000006 -0.006127 -0.071987 -19.503000
0.000000 0.000000 0.000000 0.000000 0.000000 -0.000000 -1.103820 92.432200 -1.510720 88.292600 -0.367385 3.009570 15.735700 0.000005 -0.000001 78.929300 86.104900 -77.556900 8.984550 -0.406207 -0.000000 -0.100042 -1.589680 2.741920 16.377300 -0.000001 -0.000001 2.568440 -1.451180 -1.304340 6.456720 -0.000001 -0.000000 2.996510 -1.811840 -0.033697 12.994200 -0.242716 4.980390 -87.147100 -7.326870 -68.656100 5.348090 -0.000007 -0.000001 -84.138400 -40.207500 -93.183000 24.328600 0.000019 0.000005 8.671190 0.119777 -89.214800 22.291600 -0.000001 0.000005 21.843600 5.614860 -12.274000 12.994500 -0.242716 -4.980390 88.343600 5.390420 -72.890000 -5.348130 -0.000001 -0.000004 -64.778600 38.140000 -15.302600 -24.328900 0.000322 -0.000009 2.240190 7.815550 -16.056000 -22.291500 -0.000108 -0.000004 8.547390 5.423520 -3.717700 -2.192480 -6.469440 -0.000000 -175.813000 -5.197880 -3.471140 39.081100 -0.000007 -0.000012 -0.096017 0.239022 21.885800 40.985400 -0.000006 -0.000013 -0.424308 3.346320 -65.663600 11.754300 -0.000000 0.000003 -0.000027 -0.000327 -16.590300 -2.192510 6.469440 -0.000001 -179.754000 14.035900 179.611000 -39.081100 -0.002282 -0.040193 0.006054 -0.008128 18.566300 -40.985400 0.000008 0.000006 5.021430 6.396050 -65.936500 -11.754300 -0.000006 -0.000006 -0.006043 -0.071223 -19.471800
0.000000 0.000000 0.000000 0.000000 0.000000 -0.000000 -1.135260 92.439600 -1.547490 88.266000 -0.455133 2.951280 15.735700 0.000005 -0.000001 79.190300 86.076400 -77.835300 8.984550 -0.406207 -0.000000 -0.037947 -1.563600 2.707910 16.377300 -0.000001 -0.000001 2.539570 -1.443340 -1.320570 6.456720 -0.000001 -0.000000 3.124480 -1.854920 -0.088877 12.994200 -0.242716 4.980390 -87.133500 -7.336560 -68.589500 5.348090 -0.000007 -0.000001 -84.074800 -40.378500 -93.086600 24.328600 0.000019 0.000005 8.581430 0.074069 -89.509400 22.291600 -0.000001 0.000005 21.775700 5.612660 -12.130500 12.994500 -0.242716 -4.980390 88.349800 5.372770 -72.897900 -5.348130 -0.000001 -0.000004 -64.664300 38.087900 -15.494200 -24.328900 0.000322 -0.000009 2.232610 7.800390 -16.033700 -22.291500 -0.000108 -0.000004 8.599590 5.425280 -3.777680 -2.192480 -6.469440 -0.000000 -175.760000 -5.262850 -3.537990 39.081100 -0.000007 -0.000012 -0.097776 0.243660 21.864800 40.985400 -0.000006 -0.000013 -0.452430 3.350000 -65.626100 11.754300 -0.000000 0.000003 -0.000022 -0.000274 -16.588300 -2.192510 6.469440 -0.000001 -179.657000 13.919700 179.516000 -39.081100 -0.002282 -0.040193 0.008791 -0.016293 18.547700 -40.985400 0.000008 0.000006 5.164730 6.340360 -65.906100 -11.754300 -0.000006 -0.000006 -0.006265 -0.073224 -19.553400
0.000000 0.000000 0.000000 0.000000 0.000000 -0.000000 -1.147600 92.444200 -1.576790 88.263400 -0.541552 2.920420 15.735700 0.000005 -0.000001 79.410300 86.047700 -78.083600 8.984550 -0.406207 -0.000000 0.023470 -1.541910 2.652190 16.377300 -0.000001 -0.000001 2.611110 -1.440810 -1.375810 6.456720 -0.000001 -0.000000 3.148630 -1.905720 -0.116976 12.994200 -0.242716 4.980390 -87.121700 -7.342810 -68.525300 5.348090 -0.000007 -0.000001 -83.606600 -40.557800 -92.270600 24.328600 0.000019 0.000005 8.199650 -0.031015 -90.216100 22.291600 -0.000001 0.000005 21.750700 5.611740 -12.070600 12.994500 -0.242716 -4.980390 88.346100 5.389640 -72.912600 -5.348130 -0.000001 -0.000004 -64.628000 37.987400 -15.571800 -24.328900 0.000322 -0.000009 2.256560 7.841820 -16.116300 -22.291500 -0.000108 -0.000004 8.616030 5.424000 -3.734560 -2.192480 -6.469440 -0.000000 -175.758000 -5.293510 -3.566900 39.081100 -0.000007 -0.000012 -0.097114 0.242276 21.843000 40.985400 -0.000006 -0.000013 -0.469378 3.298860 -65.600700 11.754300 -0.000000 0.000003 -0.000028 -0.000337 -16.590700 -2.192510 6.469440 -0.000001 -179.625000 13.839400 179.462000 -39.081100 -0.002282 -0.040193 0.009593 -0.018692 18.541900 -40.985400 0.000008 0.000006 5.217290 6.336990 -65.887700 -11.754300 -0.000006 -0.000006 -0.006144 -0.072140 -19.509200
0.000000 0.000000 0.000000 0.000000 0.000000 -0.000000 -1.149780 92.446400 -1.594090 88.301300 -0.592348 2.893720 15.735700 0.000005 -0.000001 79.681700 86.012800 -78.392000 8.984550 -0.406207 -0.000000 0.098045 -1.514250 2.579200 16.377300 -0.000001 -0.000001 2.569110 -1.425790 -1.395790 6.456720 -0.000001 -0.000000 3.279350 -1.953680 -0.207694 12.994200 -0.242716 4.980390 -87.139400 -7.294920 -68.519100 5.348090 -0.000007 -0.000001 -82.351700 -40.778900 -90.269000 24.328600 0.000019 0.000005 7.450030 -0.196287 -91.502000 22.291600 -0.000001 0.000005 22.018800 5.608410 -11.858900 12.994500 -0.242716 -4.980390 88.328800 5.428450 -72.859500 -5.348130 -0.000001 -0.000004 -64.509300 38.081900 -15.732200 -24.328900 0.000322 -0.000009 2.242180 7.770140 -16.158100 -22.291500 -0.000108 -0.000004 8.664290 5.423500 -3.717380 -2.192480 -6.469440 -0.000000 -175.804000 -5.281430 -3.571890 39.081100 -0.000007 -0.000012 -0.095858 0.239689 21.797800 40.985400 -0.000006 -0.000013 -0.486530 3.224110 -65.574800 11.754300 -0.000000 0.000003 -0.000023 -0.000285 -16.588700 -2.192510 6.469440 -0.000001 -179.657000 13.749800 179.401000 -39.081100 -0.002282 -0.040193 0.005617 -0.006827 18.562900 -40.985400 0.000008 0.000006 5.088050 6.322620 -65.854700 -11.754300 -0.000006 -0.000006 -0.006085 -0.071607 -19.487500
0.000000 0.000000 0.000000 0.000000 0.000000 -0.000000 -1.151070 92.449100 -1.608640 88.284900 -0.631377 2.866000 15.735700 0.000005 -0.000001 80.064900 85.973500 -78.791400 8.984550 -0.406207 -0.000000 0.184067 -1.473240 2.547920 16.377300 -0.000001 -0.000001 2.535860 -1.439700 -1.389560 6.456720 -0.000001 -0.000000 3.263330 -1.986420 -0.295615 12.994200 -0.242716 4.980390 -87.225700 -7.077940 -68.531500 5.348090 -0.000007 -0.000001 -79.999500 -40.878600 -86.832400 24.328600 0.000019 0.000005 6.966320 -0.411812 -93.366800 22.291600 -0.000001 0.000005 22.060600 5.604530 -11.616100 12.994500 -0.242716 -4.980390 88.300300 5.496830 -72.788000 -5.348130 -0.000001 -0.000004 -64.461500 38.103000 -15.813700 -24.328900 0.000322 -0.000009 2.252160 7.762310 -16.241700 -22.291500 -0.000108 -0.000004 8.708130 5.424920 -3.765550 -2.192480 -6.469440 -0.000000 -175.782000 -5.357120 -3.601390 39.081100 -0.000007 -0.000012 -0.097516 0.243858 21.795800 40.985400 -0.000006 -0.000013 -0.482949 3.249720 -65.567000 11.754300 -0.000000 0.000003 -0.000024 -0.000294 -16.589100 -2.192510 6.469440 -0.000001 -179.606000 13.594900 179.368000 -39.081100 -0.002282 -0.040193 0.007135 -0.011364 18.541000 -40.985400 0.000008 0.000006 5.106130 6.226980 -65.830100 -11.754300 -0.000006 -0.000006 -0.006173 -0.072398 -19.519700
0.000000 0.000000 0.000000 0.000000 0.000000 -0.000000 -1.148680 92.448000 -1.619090 88.264100 -0.693285 2.843200 15.735700 0.000005 -0.000001 80.842600 85.920300 -79.584700 8.984550 -0.406207 -0.000000 0.305966 -1.380020 2.517750 16.377300 -0.000001 -0.000001 2.448650 -1.498910 -1.345980 6.456720 -0.000001 -0.000000 3.171270 -2.045460 -0.433146 12.994200 -0.242716 4.980390 -87.359500 -6.758040 -68.599400 5.348090 -0.000007 -0.000001 -76.453400 -40.608100 -81.646600 24.328600 0.000019 0.000005 6.395420 -0.656271 -95.837100 22.291600 -0.000001 0.000005 21.705500 5.600800 -11.388800 12.994500 -0.242716 -4.980390 88.266800 5.560500 -72.657500 -5.348130 -0.000001 -0.000004 -64.498600 38.104000 -15.877900 -24.328900 0.000322 -0.000009 2.246740 7.680380 -16.367200 -22.291500 -0.000108 -0.000004 8.789210 5.424170 -3.740070 -2.192480 -6.469440 -0.000000 -175.769000 -5.405000 -3.648700 39.081100 -0.000007 -0.000012 -0.095442 0.238232 21.832400 40.985400 -0.000006 -0.000013 -0.475218 3.251520 -65.575700 11.754300 -0.000000 0.000003 -0.000031 -0.000374 -16.592200 -2.192510 6.469440 -0.000001 -179.563000 13.470300 179.321000 -39.081100 -0.002282 -0.040193 0.006768 -0.010264 18.551000 -40.985400 0.000008 0.000006 5.094090 6.138240 -65.810800 -11.754300 -0.000006 -0.000006 -0.005959 -0.070458 -19.440600
